<?xml version="1.0" encoding="utf-8"?>
<!-- Generator: Adobe Illustrator 22.1.0, SVG Export Plug-In . SVG Version: 6.00 Build 0)  -->
<svg version="1.1" id="Layer_1" xmlns="http://www.w3.org/2000/svg" xmlns:xlink="http://www.w3.org/1999/xlink" x="0px" y="0px"
	 viewBox="0 0 256 256" style="enable-background:new 0 0 256 256;" xml:space="preserve">
<style type="text/css">
	.st0{fill:#D73735;}
	.st1{fill:#F85252;}
	.st2{fill:#EDAF85;}
	.st3{fill:#F7C09A;}
	.st4{fill:#D8D6D7;}
	.st5{fill:#FFFFFF;}
	.st6{fill:#1C868E;}
	.st7{fill:#40C4DF;}
	.st8{fill:#491352;}
	.st9{fill:#56C1B3;}
	.st10{fill:#7BEFE4;}
</style>
<g>
	<path class="st6" d="M234.879,146.98v95.63c0,4.6-3.74,8.33-8.34,8.33h-45.58c-4.59,0-8.33-3.73-8.33-8.33v-95.63
		c0-4.61,3.74-8.33,8.33-8.33h45.58C231.139,138.65,234.879,142.371,234.879,146.98z"/>
	<path class="st7" d="M234.879,146.98v95.63c0,4.6-3.74,8.33-8.34,8.33h-31.83c-4.59,0-8.33-3.73-8.33-8.33v-95.63
		c0-4.61,3.74-8.33,8.33-8.33h31.83C231.139,138.65,234.879,142.371,234.879,146.98z"/>
	<rect x="172.629" y="157.71" class="st4" width="62.25" height="74.16"/>
	<rect x="186.379" y="157.71" class="st5" width="48.5" height="74.16"/>
	<path class="st0" d="M228.019,170.771v13.33c0,2.76-2.23,5-5,5h-38.53c-2.77,0-5-2.24-5-5v-13.33c0-2.76,2.23-5,5-5h38.53
		C225.789,165.771,228.019,168.01,228.019,170.771z"/>
	<path class="st0" d="M202.919,200.771v18.05c0,2.76-2.24,5-5,5h-13.43c-2.77,0-5-2.24-5-5v-18.05c0-2.77,2.23-5,5-5h13.43
		C200.679,195.771,202.919,198,202.919,200.771z"/>
	<path class="st1" d="M202.919,200.771v18.05c0,2.76-2.24,5-5,5h-11.54v-28.05h11.54C200.679,195.771,202.919,198,202.919,200.771z"
		/>
	<path class="st1" d="M228.019,170.771v13.33c0,2.76-2.23,5-5,5h-36.64v-23.33h36.64
		C225.789,165.771,228.019,168.01,228.019,170.771z"/>
	<path class="st1" d="M223.022,206.876h-8.158c-2.761,0-5-2.239-5-5v-1.11c0-2.761,2.239-5,5-5h8.158c2.761,0,5,2.239,5,5v1.11
		C228.022,204.637,225.784,206.876,223.022,206.876z"/>
	<path class="st1" d="M223.022,223.819h-8.158c-2.761,0-5-2.239-5-5v-1.11c0-2.761,2.239-5,5-5h8.158c2.761,0,5,2.239,5,5v1.11
		C228.022,221.581,225.784,223.819,223.022,223.819z"/>
	<circle class="st5" cx="193.349" cy="148.547" r="3.125"/>
	<path class="st5" d="M207.711,245.456h-7.916c-2.301,0-4.166-1.865-4.166-4.166l0,0c0-2.301,1.865-4.166,4.166-4.166h7.916
		c2.301,0,4.166,1.865,4.166,4.166l0,0C211.878,243.59,210.012,245.456,207.711,245.456z"/>
	<path class="st6" d="M215.859,20.061v83.04H40.779v-83.04c0-7.94,6.18-14.45,14-14.96c0.33-0.03,0.66-0.04,1-0.04h145.08
		C209.139,5.061,215.859,11.781,215.859,20.061z"/>
	<path class="st7" d="M215.859,20.061v83.04H54.779v-98c0.33-0.03,0.66-0.04,1-0.04h145.08
		C209.139,5.061,215.859,11.781,215.859,20.061z"/>
	<path class="st4" d="M206.559,19.361v83.74H50.079v-83.74c0-2.76,2.24-5,5-5h146.48c0.09,0,0.17,0.01,0.26,0.02
		C204.459,14.5,206.559,16.69,206.559,19.361z"/>
	<path class="st5" d="M206.559,19.361v83.74H64.109v-88.74h137.45c0.09,0,0.17,0.01,0.26,0.02
		C204.459,14.5,206.559,16.69,206.559,19.361z"/>
	<path class="st1" d="M175.858,51.979H79.614c-2.761,0-5-2.239-5-5V29.953c0-2.761,2.239-5,5-5h96.244c2.761,0,5,2.239,5,5v17.026
		C180.858,49.74,178.62,51.979,175.858,51.979z"/>
	<path class="st1" d="M119.16,92.511H79.614c-2.761,0-5-2.239-5-5V64.693c0-2.761,2.239-5,5-5h39.546c2.761,0,5,2.239,5,5v22.818
		C124.16,90.272,121.922,92.511,119.16,92.511z"/>
	<path class="st1" d="M175.858,71.957h-37.29c-2.761,0-5-2.239-5-5v-2.263c0-2.761,2.239-5,5-5h37.29c2.761,0,5,2.239,5,5v2.263
		C180.858,69.718,178.62,71.957,175.858,71.957z"/>
	<path class="st1" d="M175.858,92.511h-37.29c-2.761,0-5-2.239-5-5v-2.263c0-2.761,2.239-5,5-5h37.29c2.761,0,5,2.239,5,5v2.263
		C180.858,90.272,178.62,92.511,175.858,92.511z"/>
	<path class="st9" d="M234.879,108.341v4.03c0,1.94-0.35,3.79-0.99,5.5c-2.24,5.96-7.99,10.2-14.71,10.2H37.459
		c-8.66,0-15.7-7.04-15.7-15.7v-4.03c0-2.89,2.35-5.24,5.24-5.24h202.64C232.529,103.101,234.879,105.451,234.879,108.341z"/>
	<path class="st10" d="M234.879,108.341v4.03c0,1.94-0.35,3.79-0.99,5.5c-2.24,5.96-7.99,10.2-14.71,10.2H51.209
		c-8.66,0-15.7-7.04-15.7-15.7v-4.03c0-2.89,2.35-5.24,5.24-5.24h188.89C232.529,103.101,234.879,105.451,234.879,108.341z"/>
	<path class="st9" d="M152.569,103.098v4.407c0,4.459-3.621,8.08-8.08,8.08h-32.341c-4.459,0-8.08-3.621-8.08-8.08v-4.407H152.569z"
		/>
	<path class="st6" d="M159.819,142.9v80.28c0,2.76-2.24,5-5,5H26.129c-2.77,0-5-2.24-5-5V142.9c0-2.76,2.23-5,5-5h128.69
		C157.579,137.9,159.819,140.141,159.819,142.9z"/>
	<path class="st7" d="M159.819,142.9v66.94c0,2.76-2.24,5-5,5H26.129c-2.77,0-5-2.24-5-5V142.9c0-2.76,2.23-5,5-5h128.69
		C157.579,137.9,159.819,140.141,159.819,142.9z"/>
	<rect x="36.609" y="137.9" class="st4" width="107.73" height="90.28"/>
	<rect x="36.609" y="137.9" class="st5" width="107.73" height="76.94"/>
	<path class="st1" d="M128.704,175.049H52.239c-2.761,0-5-2.239-5-5v-11.995c0-2.761,2.239-5,5-5h76.465c2.761,0,5,2.239,5,5v11.995
		C133.704,172.81,131.465,175.049,128.704,175.049z"/>
	<path class="st1" d="M82.561,212.024H52.239c-2.761,0-5-2.239-5-5v-16.708c0-2.761,2.239-5,5-5h30.322c2.761,0,5,2.239,5,5v16.708
		C87.561,209.785,85.322,212.024,82.561,212.024z"/>
	<path class="st1" d="M128.713,195.296h-28.506c-2.756,0-4.99-2.234-4.99-4.99l0,0c0-2.756,2.234-4.99,4.99-4.99h28.506
		c2.756,0,4.99,2.234,4.99,4.99l0,0C133.704,193.062,131.469,195.296,128.713,195.296z"/>
	<path class="st1" d="M128.713,212.024h-28.506c-2.756,0-4.99-2.234-4.99-4.99l0,0c0-2.756,2.234-4.99,4.99-4.99h28.506
		c2.756,0,4.99,2.234,4.99,4.99l0,0C133.704,209.79,131.469,212.024,128.713,212.024z"/>
	<path class="st8" d="M226.543,136.648h-45.58c-5.698,0-10.333,4.635-10.333,10.333v10.732v74.161v10.732
		c0,5.698,4.635,10.333,10.333,10.333h45.58c5.698,0,10.333-4.635,10.333-10.333v-10.732v-74.161V146.98
		C236.876,141.283,232.241,136.648,226.543,136.648z M180.964,140.648h45.58c3.492,0,6.333,2.841,6.333,6.333v8.732h-58.246v-8.732
		C174.631,143.489,177.471,140.648,180.964,140.648z M232.876,229.874h-58.246v-70.161h58.246V229.874z M226.543,248.939h-45.58
		c-3.492,0-6.333-2.841-6.333-6.333v-8.732h58.246v8.732C232.876,246.099,230.035,248.939,226.543,248.939z"/>
	<path class="st8" d="M184.485,191.1h38.538c3.86,0,7-3.14,7-7v-13.332c0-3.86-3.14-7-7-7h-38.538c-3.86,0-7,3.14-7,7V184.1
		C177.485,187.959,180.625,191.1,184.485,191.1z M181.485,170.768c0-1.654,1.346-3,3-3h38.538c1.654,0,3,1.346,3,3V184.1
		c0,1.654-1.346,3-3,3h-38.538c-1.654,0-3-1.346-3-3V170.768z"/>
	<path class="st8" d="M184.485,225.819h13.436c3.86,0,7-3.14,7-7v-18.054c0-3.86-3.14-7-7-7h-13.436c-3.86,0-7,3.14-7,7v18.054
		C177.485,222.679,180.625,225.819,184.485,225.819z M181.485,200.766c0-1.654,1.346-3,3-3h13.436c1.654,0,3,1.346,3,3v18.054
		c0,1.654-1.346,3-3,3h-13.436c-1.654,0-3-1.346-3-3V200.766z"/>
	<path class="st8" d="M223.022,193.766h-8.158c-3.86,0-7,3.14-7,7v1.11c0,3.86,3.14,7,7,7h8.158c3.86,0,7-3.14,7-7v-1.11
		C230.022,196.906,226.882,193.766,223.022,193.766z M226.022,201.876c0,1.654-1.346,3-3,3h-8.158c-1.654,0-3-1.346-3-3v-1.11
		c0-1.654,1.346-3,3-3h8.158c1.654,0,3,1.346,3,3V201.876z"/>
	<path class="st8" d="M223.022,210.709h-8.158c-3.86,0-7,3.14-7,7v1.11c0,3.86,3.14,7,7,7h8.158c3.86,0,7-3.14,7-7v-1.11
		C230.022,213.849,226.882,210.709,223.022,210.709z M226.022,218.819c0,1.654-1.346,3-3,3h-8.158c-1.654,0-3-1.346-3-3v-1.11
		c0-1.654,1.346-3,3-3h8.158c1.654,0,3,1.346,3,3V218.819z"/>
	<path class="st8" d="M202.561,150.547h14.721c1.104,0,2-0.896,2-2s-0.896-2-2-2h-14.721c-1.104,0-2,0.896-2,2
		S201.457,150.547,202.561,150.547z"/>
	<path class="st8" d="M193.349,153.672c2.826,0,5.125-2.299,5.125-5.125c0-2.826-2.299-5.125-5.125-5.125
		c-2.826,0-5.125,2.299-5.125,5.125C188.224,151.373,190.523,153.672,193.349,153.672z M193.349,147.422
		c0.62,0,1.125,0.504,1.125,1.125s-0.504,1.125-1.125,1.125s-1.125-0.505-1.125-1.125S192.729,147.422,193.349,147.422z"/>
	<path class="st8" d="M207.712,235.123h-7.917c-3.4,0-6.166,2.766-6.166,6.167c0,3.4,2.766,6.166,6.166,6.166h7.917
		c3.4,0,6.166-2.766,6.166-6.166C213.878,237.889,211.112,235.123,207.712,235.123z M207.712,243.456h-7.917
		c-1.194,0-2.166-0.972-2.166-2.166c0-1.195,0.972-2.167,2.166-2.167h7.917c1.194,0,2.166,0.972,2.166,2.167
		C209.878,242.484,208.906,243.456,207.712,243.456z"/>
	<path class="st8" d="M175.859,22.953H79.615c-3.86,0-7,3.14-7,7v17.026c0,3.86,3.14,7,7,7h96.244c3.86,0,7-3.14,7-7V29.953
		C182.859,26.093,179.719,22.953,175.859,22.953z M178.859,46.979c0,1.654-1.346,3-3,3H79.615c-1.654,0-3-1.346-3-3V29.953
		c0-1.654,1.346-3,3-3h96.244c1.654,0,3,1.346,3,3V46.979z"/>
	<path class="st8" d="M119.16,57.693H79.615c-3.86,0-7,3.14-7,7v22.818c0,3.86,3.14,7,7,7h39.546c3.86,0,7-3.14,7-7V64.693
		C126.16,60.833,123.02,57.693,119.16,57.693z M122.16,87.511c0,1.654-1.346,3-3,3H79.615c-1.654,0-3-1.346-3-3V64.693
		c0-1.654,1.346-3,3-3h39.546c1.654,0,3,1.346,3,3V87.511z"/>
	<path class="st8" d="M175.859,57.693h-37.291c-3.86,0-7,3.14-7,7v2.263c0,3.86,3.14,7,7,7h37.291c3.86,0,7-3.14,7-7v-2.263
		C182.859,60.833,179.719,57.693,175.859,57.693z M178.859,66.957c0,1.654-1.346,3-3,3h-37.291c-1.654,0-3-1.346-3-3v-2.263
		c0-1.654,1.346-3,3-3h37.291c1.654,0,3,1.346,3,3V66.957z"/>
	<path class="st8" d="M175.859,78.248h-37.291c-3.86,0-7,3.14-7,7v2.264c0,3.86,3.14,7,7,7h37.291c3.86,0,7-3.14,7-7v-2.264
		C182.859,81.388,179.719,78.248,175.859,78.248z M178.859,87.511c0,1.654-1.346,3-3,3h-37.291c-1.654,0-3-1.346-3-3v-2.264
		c0-1.654,1.346-3,3-3h37.291c1.654,0,3,1.346,3,3V87.511z"/>
	<path class="st8" d="M229.643,101.098h-11.784V20.061c0-9.374-7.626-17-17-17H55.779c-9.374,0-17,7.626-17,17v81.038H26.994
		c-3.988,0-7.233,3.245-7.233,7.233v4.03c0,9.759,7.94,17.699,17.7,17.699h181.716c9.76,0,17.7-7.94,17.7-17.699v-4.03
		C236.876,104.343,233.631,101.098,229.643,101.098z M42.779,20.061c0-7.168,5.832-13,13-13h145.08c7.168,0,13,5.832,13,13v81.038
		h-5.304V19.365c0-3.86-3.14-7-7-7H55.083c-3.86,0-7,3.14-7,7v81.733h-5.304V20.061z M106.068,105.098h44.501v2.407
		c0,3.353-2.728,6.08-6.08,6.08h-32.341c-3.353,0-6.08-2.728-6.08-6.08V105.098z M152.569,101.098h-48.501H52.083V19.365
		c0-1.654,1.346-3,3-3h146.472c1.654,0,3,1.346,3,3v81.733H152.569z M232.876,112.361c0,7.554-6.146,13.699-13.7,13.699H37.461
		c-7.554,0-13.7-6.146-13.7-13.699v-4.03c0-1.783,1.451-3.233,3.233-3.233h13.784h9.304h51.985v2.407
		c0,5.558,4.522,10.08,10.08,10.08h32.341c5.558,0,10.08-4.522,10.08-10.08v-2.407h51.985h9.304h13.784
		c1.783,0,3.233,1.451,3.233,3.233V112.361z"/>
	<path class="st8" d="M154.819,135.902h-10.485H36.608H26.124c-3.86,0-7,3.14-7,7v80.273c0,3.86,3.14,7,7,7h10.484h107.726h10.485
		c3.86,0,7-3.14,7-7v-80.273C161.819,139.042,158.678,135.902,154.819,135.902z M23.124,223.176v-80.273c0-1.654,1.346-3,3-3h8.484
		v86.273h-8.484C24.469,226.176,23.124,224.83,23.124,223.176z M38.608,226.176v-86.273h103.726v86.273H38.608z M157.819,223.176
		c0,1.654-1.346,3-3,3h-8.485v-86.273h8.485c1.654,0,3,1.346,3,3V223.176z"/>
	<path class="st8" d="M128.703,151.054H52.239c-3.86,0-7,3.14-7,7v11.995c0,3.86,3.14,7,7,7h76.465c3.86,0,7-3.14,7-7v-11.995
		C135.703,154.194,132.563,151.054,128.703,151.054z M131.703,170.049c0,1.654-1.346,3-3,3H52.239c-1.654,0-3-1.346-3-3v-11.995
		c0-1.654,1.346-3,3-3h76.465c1.654,0,3,1.346,3,3V170.049z"/>
	<path class="st8" d="M82.561,183.316H52.239c-3.86,0-7,3.14-7,7v16.708c0,3.86,3.14,7,7,7h30.322c3.86,0,7-3.14,7-7v-16.708
		C89.561,186.456,86.421,183.316,82.561,183.316z M85.561,207.024c0,1.654-1.346,3-3,3H52.239c-1.654,0-3-1.346-3-3v-16.708
		c0-1.654,1.346-3,3-3h30.322c1.654,0,3,1.346,3,3V207.024z"/>
	<path class="st8" d="M128.714,183.316h-28.506c-3.854,0-6.99,3.136-6.99,6.99c0,3.854,3.136,6.99,6.99,6.99h28.506
		c3.854,0,6.99-3.136,6.99-6.99C135.703,186.452,132.568,183.316,128.714,183.316z M128.714,193.296h-28.506
		c-1.649,0-2.99-1.341-2.99-2.99c0-1.648,1.341-2.99,2.99-2.99h28.506c1.648,0,2.99,1.341,2.99,2.99
		C131.703,191.955,130.362,193.296,128.714,193.296z"/>
	<path class="st8" d="M128.714,200.043h-28.506c-3.854,0-6.99,3.136-6.99,6.99s3.136,6.99,6.99,6.99h28.506
		c3.854,0,6.99-3.136,6.99-6.99S132.568,200.043,128.714,200.043z M128.714,210.024h-28.506c-1.649,0-2.99-1.341-2.99-2.99
		s1.341-2.99,2.99-2.99h28.506c1.648,0,2.99,1.341,2.99,2.99S130.362,210.024,128.714,210.024z"/>
	<path class="st8" d="M29.37,173.292c-1.104,0-2,0.896-2,2v15.495c0,1.104,0.896,2,2,2s2-0.896,2-2v-15.495
		C31.37,174.187,30.475,173.292,29.37,173.292z"/>
	<path class="st8" d="M151.572,173.292c-1.104,0-2,0.896-2,2v15.495c0,1.104,0.896,2,2,2s2-0.896,2-2v-15.495
		C153.572,174.187,152.677,173.292,151.572,173.292z"/>
</g>
</svg>
